<mxfile host="app.diagrams.net" modified="2023-08-09T09:30:30.615Z" agent="Mozilla/5.0 (Macintosh; Intel Mac OS X 10_15_7) AppleWebKit/537.36 (KHTML, like Gecko) Chrome/115.0.0.0 Safari/537.36" etag="5vnds-MVGkFY3RUVLzM5" version="21.6.6" type="device">
  <diagram id="R2lEEEUBdFMjLlhIrx00" name="Page-1">
    <mxGraphModel dx="4030" dy="3273" grid="1" gridSize="10" guides="1" tooltips="1" connect="1" arrows="1" fold="1" page="1" pageScale="1" pageWidth="850" pageHeight="1100" math="0" shadow="0" extFonts="Permanent Marker^https://fonts.googleapis.com/css?family=Permanent+Marker">
      <root>
        <mxCell id="0" />
        <mxCell id="1" parent="0" />
        <mxCell id="MGfqe1ervh68L7BD_k6f-99" style="edgeStyle=orthogonalEdgeStyle;rounded=0;hachureGap=4;orthogonalLoop=1;jettySize=auto;html=1;exitX=0.75;exitY=1;exitDx=0;exitDy=0;entryX=0.5;entryY=0;entryDx=0;entryDy=0;fontFamily=Architects Daughter;fontSource=https%3A%2F%2Ffonts.googleapis.com%2Fcss%3Ffamily%3DArchitects%2BDaughter;fontSize=16;" parent="1" source="MGfqe1ervh68L7BD_k6f-1" target="MGfqe1ervh68L7BD_k6f-19" edge="1">
          <mxGeometry relative="1" as="geometry" />
        </mxCell>
        <mxCell id="MGfqe1ervh68L7BD_k6f-100" style="edgeStyle=orthogonalEdgeStyle;rounded=0;hachureGap=4;orthogonalLoop=1;jettySize=auto;html=1;exitX=0.25;exitY=1;exitDx=0;exitDy=0;entryX=0.5;entryY=0;entryDx=0;entryDy=0;fontFamily=Architects Daughter;fontSource=https%3A%2F%2Ffonts.googleapis.com%2Fcss%3Ffamily%3DArchitects%2BDaughter;fontSize=16;" parent="1" source="MGfqe1ervh68L7BD_k6f-1" target="MGfqe1ervh68L7BD_k6f-17" edge="1">
          <mxGeometry relative="1" as="geometry" />
        </mxCell>
        <mxCell id="MGfqe1ervh68L7BD_k6f-101" style="edgeStyle=orthogonalEdgeStyle;rounded=0;hachureGap=4;orthogonalLoop=1;jettySize=auto;html=1;exitX=1;exitY=0.75;exitDx=0;exitDy=0;entryX=0.564;entryY=0.053;entryDx=0;entryDy=0;entryPerimeter=0;fontFamily=Architects Daughter;fontSource=https%3A%2F%2Ffonts.googleapis.com%2Fcss%3Ffamily%3DArchitects%2BDaughter;fontSize=16;" parent="1" source="MGfqe1ervh68L7BD_k6f-1" target="MGfqe1ervh68L7BD_k6f-18" edge="1">
          <mxGeometry relative="1" as="geometry" />
        </mxCell>
        <mxCell id="MGfqe1ervh68L7BD_k6f-102" style="edgeStyle=orthogonalEdgeStyle;rounded=0;hachureGap=4;orthogonalLoop=1;jettySize=auto;html=1;exitX=1;exitY=0.25;exitDx=0;exitDy=0;entryX=0.5;entryY=1;entryDx=0;entryDy=0;fontFamily=Architects Daughter;fontSource=https%3A%2F%2Ffonts.googleapis.com%2Fcss%3Ffamily%3DArchitects%2BDaughter;fontSize=16;" parent="1" source="MGfqe1ervh68L7BD_k6f-1" target="MGfqe1ervh68L7BD_k6f-9" edge="1">
          <mxGeometry relative="1" as="geometry" />
        </mxCell>
        <mxCell id="MGfqe1ervh68L7BD_k6f-103" style="edgeStyle=orthogonalEdgeStyle;rounded=0;hachureGap=4;orthogonalLoop=1;jettySize=auto;html=1;exitX=0.75;exitY=0;exitDx=0;exitDy=0;entryX=0.5;entryY=1;entryDx=0;entryDy=0;fontFamily=Architects Daughter;fontSource=https%3A%2F%2Ffonts.googleapis.com%2Fcss%3Ffamily%3DArchitects%2BDaughter;fontSize=16;" parent="1" source="MGfqe1ervh68L7BD_k6f-1" target="MGfqe1ervh68L7BD_k6f-7" edge="1">
          <mxGeometry relative="1" as="geometry" />
        </mxCell>
        <mxCell id="MGfqe1ervh68L7BD_k6f-104" style="edgeStyle=orthogonalEdgeStyle;rounded=0;hachureGap=4;orthogonalLoop=1;jettySize=auto;html=1;exitX=0.25;exitY=0;exitDx=0;exitDy=0;entryX=0.5;entryY=1;entryDx=0;entryDy=0;fontFamily=Architects Daughter;fontSource=https%3A%2F%2Ffonts.googleapis.com%2Fcss%3Ffamily%3DArchitects%2BDaughter;fontSize=16;" parent="1" source="MGfqe1ervh68L7BD_k6f-1" target="MGfqe1ervh68L7BD_k6f-8" edge="1">
          <mxGeometry relative="1" as="geometry" />
        </mxCell>
        <mxCell id="MGfqe1ervh68L7BD_k6f-105" style="edgeStyle=orthogonalEdgeStyle;rounded=0;hachureGap=4;orthogonalLoop=1;jettySize=auto;html=1;exitX=0;exitY=0.25;exitDx=0;exitDy=0;entryX=0.5;entryY=1;entryDx=0;entryDy=0;fontFamily=Architects Daughter;fontSource=https%3A%2F%2Ffonts.googleapis.com%2Fcss%3Ffamily%3DArchitects%2BDaughter;fontSize=16;" parent="1" source="MGfqe1ervh68L7BD_k6f-1" target="MGfqe1ervh68L7BD_k6f-15" edge="1">
          <mxGeometry relative="1" as="geometry" />
        </mxCell>
        <mxCell id="MGfqe1ervh68L7BD_k6f-106" style="edgeStyle=orthogonalEdgeStyle;rounded=0;hachureGap=4;orthogonalLoop=1;jettySize=auto;html=1;exitX=0;exitY=0.75;exitDx=0;exitDy=0;entryX=0.5;entryY=0;entryDx=0;entryDy=0;fontFamily=Architects Daughter;fontSource=https%3A%2F%2Ffonts.googleapis.com%2Fcss%3Ffamily%3DArchitects%2BDaughter;fontSize=16;" parent="1" source="MGfqe1ervh68L7BD_k6f-1" target="MGfqe1ervh68L7BD_k6f-16" edge="1">
          <mxGeometry relative="1" as="geometry" />
        </mxCell>
        <mxCell id="MGfqe1ervh68L7BD_k6f-1" value="Books" style="whiteSpace=wrap;html=1;align=center;hachureGap=4;fontFamily=Times New Roman;fontSize=18;rounded=1;" parent="1" vertex="1">
          <mxGeometry x="-100" y="-20" width="120" height="40" as="geometry" />
        </mxCell>
        <mxCell id="MGfqe1ervh68L7BD_k6f-82" style="edgeStyle=orthogonalEdgeStyle;rounded=0;hachureGap=4;orthogonalLoop=1;jettySize=auto;html=1;exitX=0.5;exitY=0;exitDx=0;exitDy=0;entryX=0.5;entryY=1;entryDx=0;entryDy=0;fontFamily=Times New Roman;fontSize=18;" parent="1" source="MGfqe1ervh68L7BD_k6f-2" target="MGfqe1ervh68L7BD_k6f-79" edge="1">
          <mxGeometry relative="1" as="geometry" />
        </mxCell>
        <mxCell id="MGfqe1ervh68L7BD_k6f-83" style="edgeStyle=orthogonalEdgeStyle;rounded=0;hachureGap=4;orthogonalLoop=1;jettySize=auto;html=1;exitX=0;exitY=0.5;exitDx=0;exitDy=0;entryX=0.5;entryY=1;entryDx=0;entryDy=0;fontFamily=Times New Roman;fontSize=18;" parent="1" source="MGfqe1ervh68L7BD_k6f-2" target="MGfqe1ervh68L7BD_k6f-81" edge="1">
          <mxGeometry relative="1" as="geometry" />
        </mxCell>
        <mxCell id="MGfqe1ervh68L7BD_k6f-84" style="edgeStyle=orthogonalEdgeStyle;rounded=0;hachureGap=4;orthogonalLoop=1;jettySize=auto;html=1;exitX=1;exitY=0.5;exitDx=0;exitDy=0;fontFamily=Times New Roman;fontSize=18;" parent="1" source="MGfqe1ervh68L7BD_k6f-2" target="MGfqe1ervh68L7BD_k6f-80" edge="1">
          <mxGeometry relative="1" as="geometry" />
        </mxCell>
        <mxCell id="MGfqe1ervh68L7BD_k6f-2" value="Publisher" style="whiteSpace=wrap;html=1;align=center;hachureGap=4;fontFamily=Times New Roman;fontSize=18;rounded=1;" parent="1" vertex="1">
          <mxGeometry x="-640" y="-355" width="100" height="40" as="geometry" />
        </mxCell>
        <mxCell id="MGfqe1ervh68L7BD_k6f-76" style="edgeStyle=orthogonalEdgeStyle;rounded=0;hachureGap=4;orthogonalLoop=1;jettySize=auto;html=1;exitX=0;exitY=0.5;exitDx=0;exitDy=0;entryX=0.5;entryY=1;entryDx=0;entryDy=0;fontFamily=Times New Roman;fontSize=18;" parent="1" source="MGfqe1ervh68L7BD_k6f-3" target="MGfqe1ervh68L7BD_k6f-74" edge="1">
          <mxGeometry relative="1" as="geometry" />
        </mxCell>
        <mxCell id="MGfqe1ervh68L7BD_k6f-77" style="edgeStyle=orthogonalEdgeStyle;rounded=0;hachureGap=4;orthogonalLoop=1;jettySize=auto;html=1;exitX=0.5;exitY=0;exitDx=0;exitDy=0;entryX=0.5;entryY=1;entryDx=0;entryDy=0;fontFamily=Times New Roman;fontSize=18;" parent="1" source="MGfqe1ervh68L7BD_k6f-3" target="MGfqe1ervh68L7BD_k6f-75" edge="1">
          <mxGeometry relative="1" as="geometry" />
        </mxCell>
        <mxCell id="MGfqe1ervh68L7BD_k6f-78" style="edgeStyle=orthogonalEdgeStyle;rounded=0;hachureGap=4;orthogonalLoop=1;jettySize=auto;html=1;exitX=1;exitY=0.5;exitDx=0;exitDy=0;entryX=0.5;entryY=1;entryDx=0;entryDy=0;fontFamily=Times New Roman;fontSize=18;" parent="1" source="MGfqe1ervh68L7BD_k6f-3" target="MGfqe1ervh68L7BD_k6f-73" edge="1">
          <mxGeometry relative="1" as="geometry" />
        </mxCell>
        <mxCell id="MGfqe1ervh68L7BD_k6f-3" value="Authors" style="whiteSpace=wrap;html=1;align=center;hachureGap=4;fontFamily=Times New Roman;fontSize=18;rounded=1;" parent="1" vertex="1">
          <mxGeometry x="-90" y="-360" width="100" height="40" as="geometry" />
        </mxCell>
        <mxCell id="MGfqe1ervh68L7BD_k6f-45" style="edgeStyle=orthogonalEdgeStyle;rounded=0;hachureGap=4;orthogonalLoop=1;jettySize=auto;html=1;exitX=0;exitY=0.5;exitDx=0;exitDy=0;fontFamily=Times New Roman;fontSize=18;entryX=0.5;entryY=0;entryDx=0;entryDy=0;" parent="1" source="MGfqe1ervh68L7BD_k6f-4" target="MGfqe1ervh68L7BD_k6f-40" edge="1">
          <mxGeometry relative="1" as="geometry">
            <mxPoint x="-240" y="385" as="targetPoint" />
          </mxGeometry>
        </mxCell>
        <mxCell id="MGfqe1ervh68L7BD_k6f-46" style="edgeStyle=orthogonalEdgeStyle;rounded=0;hachureGap=4;orthogonalLoop=1;jettySize=auto;html=1;exitX=1;exitY=0.5;exitDx=0;exitDy=0;fontFamily=Times New Roman;fontSize=18;" parent="1" source="MGfqe1ervh68L7BD_k6f-4" target="MGfqe1ervh68L7BD_k6f-41" edge="1">
          <mxGeometry relative="1" as="geometry" />
        </mxCell>
        <mxCell id="MGfqe1ervh68L7BD_k6f-47" style="edgeStyle=orthogonalEdgeStyle;rounded=0;hachureGap=4;orthogonalLoop=1;jettySize=auto;html=1;exitX=0.75;exitY=1;exitDx=0;exitDy=0;entryX=0.5;entryY=0;entryDx=0;entryDy=0;fontFamily=Times New Roman;fontSize=18;" parent="1" source="MGfqe1ervh68L7BD_k6f-4" target="MGfqe1ervh68L7BD_k6f-43" edge="1">
          <mxGeometry relative="1" as="geometry" />
        </mxCell>
        <mxCell id="MGfqe1ervh68L7BD_k6f-97" style="edgeStyle=orthogonalEdgeStyle;rounded=0;hachureGap=4;orthogonalLoop=1;jettySize=auto;html=1;exitX=0.25;exitY=1;exitDx=0;exitDy=0;entryX=0.5;entryY=0;entryDx=0;entryDy=0;fontFamily=Architects Daughter;fontSource=https%3A%2F%2Ffonts.googleapis.com%2Fcss%3Ffamily%3DArchitects%2BDaughter;fontSize=16;" parent="1" source="MGfqe1ervh68L7BD_k6f-4" target="MGfqe1ervh68L7BD_k6f-39" edge="1">
          <mxGeometry relative="1" as="geometry" />
        </mxCell>
        <mxCell id="MGfqe1ervh68L7BD_k6f-4" value="Warehouses" style="whiteSpace=wrap;html=1;align=center;hachureGap=4;fontFamily=Times New Roman;fontSize=18;rounded=1;" parent="1" vertex="1">
          <mxGeometry x="-110" y="350" width="140" height="40" as="geometry" />
        </mxCell>
        <mxCell id="MGfqe1ervh68L7BD_k6f-54" style="edgeStyle=orthogonalEdgeStyle;rounded=0;hachureGap=4;orthogonalLoop=1;jettySize=auto;html=1;exitX=0.5;exitY=0;exitDx=0;exitDy=0;entryX=0.5;entryY=1;entryDx=0;entryDy=0;fontFamily=Times New Roman;fontSize=18;" parent="1" source="MGfqe1ervh68L7BD_k6f-5" target="MGfqe1ervh68L7BD_k6f-49" edge="1">
          <mxGeometry relative="1" as="geometry" />
        </mxCell>
        <mxCell id="MGfqe1ervh68L7BD_k6f-55" style="edgeStyle=orthogonalEdgeStyle;rounded=0;hachureGap=4;orthogonalLoop=1;jettySize=auto;html=1;exitX=1;exitY=0.25;exitDx=0;exitDy=0;entryX=0.5;entryY=1;entryDx=0;entryDy=0;fontFamily=Times New Roman;fontSize=18;" parent="1" source="MGfqe1ervh68L7BD_k6f-5" target="MGfqe1ervh68L7BD_k6f-51" edge="1">
          <mxGeometry relative="1" as="geometry" />
        </mxCell>
        <mxCell id="MGfqe1ervh68L7BD_k6f-56" style="edgeStyle=orthogonalEdgeStyle;rounded=0;hachureGap=4;orthogonalLoop=1;jettySize=auto;html=1;exitX=1;exitY=0.75;exitDx=0;exitDy=0;entryX=0.5;entryY=0;entryDx=0;entryDy=0;fontFamily=Times New Roman;fontSize=18;" parent="1" source="MGfqe1ervh68L7BD_k6f-5" target="MGfqe1ervh68L7BD_k6f-52" edge="1">
          <mxGeometry relative="1" as="geometry" />
        </mxCell>
        <mxCell id="MGfqe1ervh68L7BD_k6f-57" style="edgeStyle=orthogonalEdgeStyle;rounded=0;hachureGap=4;orthogonalLoop=1;jettySize=auto;html=1;exitX=0.5;exitY=1;exitDx=0;exitDy=0;entryX=0.5;entryY=0;entryDx=0;entryDy=0;fontFamily=Times New Roman;fontSize=18;" parent="1" source="MGfqe1ervh68L7BD_k6f-5" target="MGfqe1ervh68L7BD_k6f-53" edge="1">
          <mxGeometry relative="1" as="geometry" />
        </mxCell>
        <mxCell id="MGfqe1ervh68L7BD_k6f-5" value="ShoppingCart" style="whiteSpace=wrap;html=1;align=center;hachureGap=4;fontFamily=Times New Roman;fontSize=18;rounded=1;" parent="1" vertex="1">
          <mxGeometry x="530" y="-25" width="150" height="50" as="geometry" />
        </mxCell>
        <mxCell id="MGfqe1ervh68L7BD_k6f-65" style="edgeStyle=orthogonalEdgeStyle;rounded=0;hachureGap=4;orthogonalLoop=1;jettySize=auto;html=1;exitX=0.25;exitY=0;exitDx=0;exitDy=0;entryX=0.61;entryY=1;entryDx=0;entryDy=0;entryPerimeter=0;fontFamily=Times New Roman;fontSize=18;" parent="1" source="MGfqe1ervh68L7BD_k6f-6" target="MGfqe1ervh68L7BD_k6f-62" edge="1">
          <mxGeometry relative="1" as="geometry" />
        </mxCell>
        <mxCell id="MGfqe1ervh68L7BD_k6f-66" style="edgeStyle=orthogonalEdgeStyle;rounded=0;hachureGap=4;orthogonalLoop=1;jettySize=auto;html=1;exitX=0.75;exitY=0;exitDx=0;exitDy=0;entryX=0.5;entryY=1;entryDx=0;entryDy=0;fontFamily=Times New Roman;fontSize=18;" parent="1" source="MGfqe1ervh68L7BD_k6f-6" target="MGfqe1ervh68L7BD_k6f-61" edge="1">
          <mxGeometry relative="1" as="geometry" />
        </mxCell>
        <mxCell id="MGfqe1ervh68L7BD_k6f-68" style="edgeStyle=orthogonalEdgeStyle;rounded=0;hachureGap=4;orthogonalLoop=1;jettySize=auto;html=1;exitX=1;exitY=0.25;exitDx=0;exitDy=0;entryX=0;entryY=0.5;entryDx=0;entryDy=0;fontFamily=Times New Roman;fontSize=18;" parent="1" source="MGfqe1ervh68L7BD_k6f-6" target="MGfqe1ervh68L7BD_k6f-60" edge="1">
          <mxGeometry relative="1" as="geometry" />
        </mxCell>
        <mxCell id="MGfqe1ervh68L7BD_k6f-69" style="edgeStyle=orthogonalEdgeStyle;rounded=0;hachureGap=4;orthogonalLoop=1;jettySize=auto;html=1;exitX=1;exitY=0.75;exitDx=0;exitDy=0;entryX=0;entryY=0.5;entryDx=0;entryDy=0;fontFamily=Times New Roman;fontSize=18;" parent="1" source="MGfqe1ervh68L7BD_k6f-6" target="MGfqe1ervh68L7BD_k6f-59" edge="1">
          <mxGeometry relative="1" as="geometry" />
        </mxCell>
        <mxCell id="MGfqe1ervh68L7BD_k6f-70" style="edgeStyle=orthogonalEdgeStyle;rounded=0;hachureGap=4;orthogonalLoop=1;jettySize=auto;html=1;exitX=0;exitY=0.25;exitDx=0;exitDy=0;entryX=1;entryY=0.5;entryDx=0;entryDy=0;fontFamily=Times New Roman;fontSize=18;" parent="1" source="MGfqe1ervh68L7BD_k6f-6" target="MGfqe1ervh68L7BD_k6f-64" edge="1">
          <mxGeometry relative="1" as="geometry" />
        </mxCell>
        <mxCell id="MGfqe1ervh68L7BD_k6f-72" style="edgeStyle=orthogonalEdgeStyle;rounded=0;hachureGap=4;orthogonalLoop=1;jettySize=auto;html=1;exitX=0;exitY=0.75;exitDx=0;exitDy=0;entryX=1;entryY=0.5;entryDx=0;entryDy=0;fontFamily=Times New Roman;fontSize=18;" parent="1" source="MGfqe1ervh68L7BD_k6f-6" target="MGfqe1ervh68L7BD_k6f-63" edge="1">
          <mxGeometry relative="1" as="geometry" />
        </mxCell>
        <mxCell id="MGfqe1ervh68L7BD_k6f-6" value="Customer" style="whiteSpace=wrap;html=1;align=center;hachureGap=4;fontFamily=Times New Roman;fontSize=18;rounded=1;" parent="1" vertex="1">
          <mxGeometry x="1300" y="-20" width="100" height="45" as="geometry" />
        </mxCell>
        <mxCell id="MGfqe1ervh68L7BD_k6f-7" value="DOP" style="ellipse;whiteSpace=wrap;html=1;align=center;hachureGap=4;fontFamily=Times New Roman;fontSize=18;" parent="1" vertex="1">
          <mxGeometry y="-115" width="100" height="30" as="geometry" />
        </mxCell>
        <mxCell id="MGfqe1ervh68L7BD_k6f-8" value="BookName" style="ellipse;whiteSpace=wrap;html=1;align=center;hachureGap=4;fontFamily=Times New Roman;fontSize=18;" parent="1" vertex="1">
          <mxGeometry x="-180" y="-110" width="100" height="30" as="geometry" />
        </mxCell>
        <mxCell id="MGfqe1ervh68L7BD_k6f-9" value="Price" style="ellipse;whiteSpace=wrap;html=1;align=center;hachureGap=4;fontFamily=Times New Roman;fontSize=18;" parent="1" vertex="1">
          <mxGeometry x="90" y="-80" width="100" height="30" as="geometry" />
        </mxCell>
        <mxCell id="MGfqe1ervh68L7BD_k6f-15" value="&lt;span style=&quot;border-bottom: 1px dotted; font-size: 18px;&quot;&gt;AuthorName&lt;/span&gt;" style="ellipse;whiteSpace=wrap;html=1;align=center;hachureGap=4;fontFamily=Times New Roman;fontSize=18;" parent="1" vertex="1">
          <mxGeometry x="-280" y="-80" width="120" height="40" as="geometry" />
        </mxCell>
        <mxCell id="MGfqe1ervh68L7BD_k6f-16" value="&lt;span style=&quot;border-bottom: 1px dotted; font-size: 18px;&quot;&gt;PublisherName&lt;/span&gt;" style="ellipse;whiteSpace=wrap;html=1;align=center;hachureGap=4;fontFamily=Times New Roman;fontSize=18;" parent="1" vertex="1">
          <mxGeometry x="-280" y="40" width="120" height="40" as="geometry" />
        </mxCell>
        <mxCell id="MGfqe1ervh68L7BD_k6f-17" value="&lt;span style=&quot;border-bottom: 1px dotted; font-size: 18px;&quot;&gt;Stock&lt;/span&gt;" style="ellipse;whiteSpace=wrap;html=1;align=center;hachureGap=4;fontFamily=Times New Roman;fontSize=18;" parent="1" vertex="1">
          <mxGeometry x="-180" y="90" width="100" height="30" as="geometry" />
        </mxCell>
        <mxCell id="MGfqe1ervh68L7BD_k6f-18" value="WarehouseCode" style="ellipse;whiteSpace=wrap;html=1;align=center;hachureGap=4;fontFamily=Times New Roman;fontSize=18;" parent="1" vertex="1">
          <mxGeometry x="70" y="40" width="130" height="40" as="geometry" />
        </mxCell>
        <mxCell id="MGfqe1ervh68L7BD_k6f-19" value="ISBN" style="ellipse;whiteSpace=wrap;html=1;align=center;fontStyle=4;hachureGap=4;fontFamily=Times New Roman;fontSize=18;" parent="1" vertex="1">
          <mxGeometry y="90" width="100" height="30" as="geometry" />
        </mxCell>
        <mxCell id="MGfqe1ervh68L7BD_k6f-37" style="edgeStyle=orthogonalEdgeStyle;rounded=0;sketch=1;hachureGap=4;jiggle=2;curveFitting=1;orthogonalLoop=1;jettySize=auto;html=1;exitX=0.5;exitY=1;exitDx=0;exitDy=0;fontFamily=Times New Roman;fontSize=18;" parent="1" source="MGfqe1ervh68L7BD_k6f-17" target="MGfqe1ervh68L7BD_k6f-17" edge="1">
          <mxGeometry relative="1" as="geometry" />
        </mxCell>
        <mxCell id="MGfqe1ervh68L7BD_k6f-39" value="Address" style="ellipse;whiteSpace=wrap;html=1;align=center;hachureGap=4;fontFamily=Times New Roman;fontSize=18;" parent="1" vertex="1">
          <mxGeometry x="-150" y="440" width="100" height="40" as="geometry" />
        </mxCell>
        <mxCell id="MGfqe1ervh68L7BD_k6f-40" value="PhoneNo" style="ellipse;whiteSpace=wrap;html=1;align=center;hachureGap=4;fontFamily=Times New Roman;fontSize=18;" parent="1" vertex="1">
          <mxGeometry x="-250" y="405" width="100" height="40" as="geometry" />
        </mxCell>
        <mxCell id="MGfqe1ervh68L7BD_k6f-41" value="Code" style="ellipse;whiteSpace=wrap;html=1;align=center;fontStyle=4;hachureGap=4;fontFamily=Times New Roman;fontSize=18;" parent="1" vertex="1">
          <mxGeometry x="70" y="405" width="100" height="40" as="geometry" />
        </mxCell>
        <mxCell id="MGfqe1ervh68L7BD_k6f-43" value="Stock" style="ellipse;whiteSpace=wrap;html=1;align=center;fontStyle=4;hachureGap=4;fontFamily=Times New Roman;fontSize=18;" parent="1" vertex="1">
          <mxGeometry x="-30" y="435" width="100" height="40" as="geometry" />
        </mxCell>
        <mxCell id="MGfqe1ervh68L7BD_k6f-49" value="Quantity" style="ellipse;whiteSpace=wrap;html=1;align=center;hachureGap=4;fontFamily=Times New Roman;fontSize=18;" parent="1" vertex="1">
          <mxGeometry x="555" y="-120" width="100" height="40" as="geometry" />
        </mxCell>
        <mxCell id="MGfqe1ervh68L7BD_k6f-51" value="&lt;span style=&quot;border-bottom: 1px dotted; font-size: 18px;&quot;&gt;CustomerID&lt;/span&gt;" style="ellipse;whiteSpace=wrap;html=1;align=center;hachureGap=4;fontFamily=Times New Roman;fontSize=18;" parent="1" vertex="1">
          <mxGeometry x="680" y="-95" width="150" height="40" as="geometry" />
        </mxCell>
        <mxCell id="MGfqe1ervh68L7BD_k6f-52" value="&lt;span style=&quot;border-bottom: 1px dotted; font-size: 18px;&quot;&gt;BookISBN&lt;/span&gt;" style="ellipse;whiteSpace=wrap;html=1;align=center;hachureGap=4;fontFamily=Times New Roman;fontSize=18;" parent="1" vertex="1">
          <mxGeometry x="680" y="50" width="150" height="40" as="geometry" />
        </mxCell>
        <mxCell id="MGfqe1ervh68L7BD_k6f-53" value="OrderID" style="ellipse;whiteSpace=wrap;html=1;align=center;fontStyle=4;hachureGap=4;fontFamily=Times New Roman;fontSize=18;" parent="1" vertex="1">
          <mxGeometry x="555" y="80" width="100" height="40" as="geometry" />
        </mxCell>
        <mxCell id="MGfqe1ervh68L7BD_k6f-59" value="PhoneNo" style="ellipse;whiteSpace=wrap;html=1;align=center;hachureGap=4;fontFamily=Times New Roman;fontSize=18;" parent="1" vertex="1">
          <mxGeometry x="1475" y="25" width="100" height="40" as="geometry" />
        </mxCell>
        <mxCell id="MGfqe1ervh68L7BD_k6f-60" value="Address" style="ellipse;whiteSpace=wrap;html=1;align=center;hachureGap=4;fontFamily=Times New Roman;fontSize=18;" parent="1" vertex="1">
          <mxGeometry x="1475" y="-45" width="100" height="40" as="geometry" />
        </mxCell>
        <mxCell id="MGfqe1ervh68L7BD_k6f-61" value="Email" style="ellipse;whiteSpace=wrap;html=1;align=center;hachureGap=4;fontFamily=Times New Roman;fontSize=18;" parent="1" vertex="1">
          <mxGeometry x="1375" y="-115" width="100" height="40" as="geometry" />
        </mxCell>
        <mxCell id="MGfqe1ervh68L7BD_k6f-62" value="Name" style="ellipse;whiteSpace=wrap;html=1;align=center;hachureGap=4;fontFamily=Times New Roman;fontSize=18;" parent="1" vertex="1">
          <mxGeometry x="1210" y="-115" width="100" height="40" as="geometry" />
        </mxCell>
        <mxCell id="MGfqe1ervh68L7BD_k6f-63" value="ID" style="ellipse;whiteSpace=wrap;html=1;align=center;fontStyle=4;hachureGap=4;fontFamily=Times New Roman;fontSize=18;" parent="1" vertex="1">
          <mxGeometry x="1120" y="25" width="100" height="40" as="geometry" />
        </mxCell>
        <mxCell id="MGfqe1ervh68L7BD_k6f-64" value="&lt;span style=&quot;border-bottom: 1px dotted; font-size: 18px;&quot;&gt;OrderID&lt;/span&gt;" style="ellipse;whiteSpace=wrap;html=1;align=center;hachureGap=4;fontFamily=Times New Roman;fontSize=18;" parent="1" vertex="1">
          <mxGeometry x="1120" y="-55" width="100" height="40" as="geometry" />
        </mxCell>
        <mxCell id="MGfqe1ervh68L7BD_k6f-73" value="Name" style="ellipse;whiteSpace=wrap;html=1;align=center;fontStyle=4;hachureGap=4;fontFamily=Times New Roman;fontSize=18;" parent="1" vertex="1">
          <mxGeometry x="30" y="-415" width="100" height="40" as="geometry" />
        </mxCell>
        <mxCell id="MGfqe1ervh68L7BD_k6f-74" value="AuthorID" style="ellipse;whiteSpace=wrap;html=1;align=center;fontStyle=4;hachureGap=4;fontFamily=Times New Roman;fontSize=18;" parent="1" vertex="1">
          <mxGeometry x="-210" y="-415" width="100" height="40" as="geometry" />
        </mxCell>
        <mxCell id="MGfqe1ervh68L7BD_k6f-75" value="Country" style="ellipse;whiteSpace=wrap;html=1;align=center;hachureGap=4;fontFamily=Times New Roman;fontSize=18;" parent="1" vertex="1">
          <mxGeometry x="-90" y="-440" width="100" height="40" as="geometry" />
        </mxCell>
        <mxCell id="MGfqe1ervh68L7BD_k6f-79" value="Name" style="ellipse;whiteSpace=wrap;html=1;align=center;fontStyle=4;hachureGap=4;fontFamily=Times New Roman;fontSize=18;" parent="1" vertex="1">
          <mxGeometry x="-640" y="-440" width="100" height="40" as="geometry" />
        </mxCell>
        <mxCell id="MGfqe1ervh68L7BD_k6f-80" value="PhoneNo" style="ellipse;whiteSpace=wrap;html=1;align=center;hachureGap=4;fontFamily=Times New Roman;fontSize=18;" parent="1" vertex="1">
          <mxGeometry x="-530" y="-410" width="100" height="40" as="geometry" />
        </mxCell>
        <mxCell id="MGfqe1ervh68L7BD_k6f-81" value="Address" style="ellipse;whiteSpace=wrap;html=1;align=center;hachureGap=4;fontFamily=Times New Roman;fontSize=18;" parent="1" vertex="1">
          <mxGeometry x="-750" y="-410" width="100" height="40" as="geometry" />
        </mxCell>
        <mxCell id="MGfqe1ervh68L7BD_k6f-85" value="Publishes" style="shape=rhombus;perimeter=rhombusPerimeter;whiteSpace=wrap;html=1;align=center;hachureGap=4;fontFamily=Times New Roman;fontSize=18;" parent="1" vertex="1">
          <mxGeometry x="-650" y="-260" width="120" height="60" as="geometry" />
        </mxCell>
        <mxCell id="MGfqe1ervh68L7BD_k6f-86" value="Stocked in" style="shape=rhombus;perimeter=rhombusPerimeter;whiteSpace=wrap;html=1;align=center;hachureGap=4;fontFamily=Times New Roman;fontSize=18;" parent="1" vertex="1">
          <mxGeometry x="-115" y="210" width="150" height="60" as="geometry" />
        </mxCell>
        <mxCell id="MGfqe1ervh68L7BD_k6f-88" value="Adds book to" style="shape=rhombus;perimeter=rhombusPerimeter;whiteSpace=wrap;html=1;align=center;hachureGap=4;fontFamily=Times New Roman;fontSize=18;" parent="1" vertex="1">
          <mxGeometry x="950" y="-30" width="130" height="60" as="geometry" />
        </mxCell>
        <mxCell id="MGfqe1ervh68L7BD_k6f-89" value="Writes" style="shape=rhombus;perimeter=rhombusPerimeter;whiteSpace=wrap;html=1;align=center;hachureGap=4;fontFamily=Times New Roman;fontSize=18;" parent="1" vertex="1">
          <mxGeometry x="-100" y="-260" width="120" height="60" as="geometry" />
        </mxCell>
        <mxCell id="MGfqe1ervh68L7BD_k6f-90" value="Added to" style="shape=rhombus;perimeter=rhombusPerimeter;whiteSpace=wrap;html=1;align=center;hachureGap=4;fontFamily=Times New Roman;fontSize=18;" parent="1" vertex="1">
          <mxGeometry x="255" y="-30" width="150" height="60" as="geometry" />
        </mxCell>
        <mxCell id="MGfqe1ervh68L7BD_k6f-113" value="" style="fontSize=12;html=1;endArrow=ERmandOne;endFill=0;rounded=0;hachureGap=4;fontFamily=Architects Daughter;fontSource=https%3A%2F%2Ffonts.googleapis.com%2Fcss%3Ffamily%3DArchitects%2BDaughter;entryX=0;entryY=0.5;entryDx=0;entryDy=0;exitX=1;exitY=0.5;exitDx=0;exitDy=0;" parent="1" source="MGfqe1ervh68L7BD_k6f-88" target="MGfqe1ervh68L7BD_k6f-6" edge="1">
          <mxGeometry width="100" height="100" relative="1" as="geometry">
            <mxPoint x="1175" y="195" as="sourcePoint" />
            <mxPoint x="1275" y="95" as="targetPoint" />
          </mxGeometry>
        </mxCell>
        <mxCell id="MGfqe1ervh68L7BD_k6f-117" value="" style="fontSize=12;html=1;endArrow=ERmandOne;rounded=0;hachureGap=4;fontFamily=Architects Daughter;fontSource=https%3A%2F%2Ffonts.googleapis.com%2Fcss%3Ffamily%3DArchitects%2BDaughter;entryX=1;entryY=0.5;entryDx=0;entryDy=0;exitX=0;exitY=0.5;exitDx=0;exitDy=0;" parent="1" source="MGfqe1ervh68L7BD_k6f-90" target="MGfqe1ervh68L7BD_k6f-1" edge="1">
          <mxGeometry width="100" height="100" relative="1" as="geometry">
            <mxPoint x="210" y="290" as="sourcePoint" />
            <mxPoint x="310" y="190" as="targetPoint" />
          </mxGeometry>
        </mxCell>
        <mxCell id="MGfqe1ervh68L7BD_k6f-118" value="" style="fontSize=12;html=1;endArrow=ERoneToMany;rounded=0;hachureGap=4;fontFamily=Architects Daughter;fontSource=https%3A%2F%2Ffonts.googleapis.com%2Fcss%3Ffamily%3DArchitects%2BDaughter;entryX=0.5;entryY=1;entryDx=0;entryDy=0;exitX=0.5;exitY=0;exitDx=0;exitDy=0;endFill=0;" parent="1" source="MGfqe1ervh68L7BD_k6f-86" target="MGfqe1ervh68L7BD_k6f-1" edge="1">
          <mxGeometry width="100" height="100" relative="1" as="geometry">
            <mxPoint x="-130" y="230" as="sourcePoint" />
            <mxPoint x="-30" y="130" as="targetPoint" />
          </mxGeometry>
        </mxCell>
        <mxCell id="MGfqe1ervh68L7BD_k6f-119" value="" style="fontSize=12;html=1;endArrow=ERoneToMany;rounded=0;hachureGap=4;fontFamily=Architects Daughter;fontSource=https%3A%2F%2Ffonts.googleapis.com%2Fcss%3Ffamily%3DArchitects%2BDaughter;entryX=0.5;entryY=0;entryDx=0;entryDy=0;exitX=0.5;exitY=1;exitDx=0;exitDy=0;endFill=0;" parent="1" source="MGfqe1ervh68L7BD_k6f-89" target="MGfqe1ervh68L7BD_k6f-1" edge="1">
          <mxGeometry width="100" height="100" relative="1" as="geometry">
            <mxPoint x="-120" y="-140" as="sourcePoint" />
            <mxPoint x="-20" y="-240" as="targetPoint" />
            <Array as="points">
              <mxPoint x="-40" y="-230" />
            </Array>
          </mxGeometry>
        </mxCell>
        <mxCell id="MGfqe1ervh68L7BD_k6f-120" value="" style="fontSize=12;html=1;endArrow=ERmandOne;rounded=0;hachureGap=4;fontFamily=Architects Daughter;fontSource=https%3A%2F%2Ffonts.googleapis.com%2Fcss%3Ffamily%3DArchitects%2BDaughter;entryX=0.5;entryY=0;entryDx=0;entryDy=0;exitX=0.5;exitY=1;exitDx=0;exitDy=0;" parent="1" source="MGfqe1ervh68L7BD_k6f-86" target="MGfqe1ervh68L7BD_k6f-4" edge="1">
          <mxGeometry width="100" height="100" relative="1" as="geometry">
            <mxPoint x="180" y="280" as="sourcePoint" />
            <mxPoint x="280" y="180" as="targetPoint" />
          </mxGeometry>
        </mxCell>
        <mxCell id="MGfqe1ervh68L7BD_k6f-121" value="" style="fontSize=12;html=1;endArrow=ERmandOne;rounded=0;hachureGap=4;fontFamily=Architects Daughter;fontSource=https%3A%2F%2Ffonts.googleapis.com%2Fcss%3Ffamily%3DArchitects%2BDaughter;entryX=0.5;entryY=1;entryDx=0;entryDy=0;exitX=0.5;exitY=0;exitDx=0;exitDy=0;" parent="1" source="MGfqe1ervh68L7BD_k6f-89" target="MGfqe1ervh68L7BD_k6f-3" edge="1">
          <mxGeometry width="100" height="100" relative="1" as="geometry">
            <mxPoint x="-270" y="-110" as="sourcePoint" />
            <mxPoint x="-170" y="-210" as="targetPoint" />
          </mxGeometry>
        </mxCell>
        <mxCell id="MGfqe1ervh68L7BD_k6f-122" value="" style="fontSize=12;html=1;endArrow=ERmandOne;rounded=0;hachureGap=4;fontFamily=Architects Daughter;fontSource=https%3A%2F%2Ffonts.googleapis.com%2Fcss%3Ffamily%3DArchitects%2BDaughter;entryX=0.5;entryY=1;entryDx=0;entryDy=0;exitX=0.5;exitY=0;exitDx=0;exitDy=0;" parent="1" source="MGfqe1ervh68L7BD_k6f-85" target="MGfqe1ervh68L7BD_k6f-2" edge="1">
          <mxGeometry width="100" height="100" relative="1" as="geometry">
            <mxPoint x="-590" y="-250" as="sourcePoint" />
            <mxPoint x="-440" y="-10" as="targetPoint" />
          </mxGeometry>
        </mxCell>
        <mxCell id="MGfqe1ervh68L7BD_k6f-123" value="" style="fontSize=12;html=1;endArrow=ERoneToMany;rounded=0;hachureGap=4;fontFamily=Architects Daughter;fontSource=https%3A%2F%2Ffonts.googleapis.com%2Fcss%3Ffamily%3DArchitects%2BDaughter;entryX=0;entryY=0.5;entryDx=0;entryDy=0;exitX=0.5;exitY=1;exitDx=0;exitDy=0;" parent="1" source="MGfqe1ervh68L7BD_k6f-85" target="MGfqe1ervh68L7BD_k6f-1" edge="1">
          <mxGeometry width="100" height="100" relative="1" as="geometry">
            <mxPoint x="-670" y="90" as="sourcePoint" />
            <mxPoint x="-570" y="-10" as="targetPoint" />
            <Array as="points">
              <mxPoint x="-590" />
              <mxPoint x="-390" />
            </Array>
          </mxGeometry>
        </mxCell>
        <mxCell id="MGfqe1ervh68L7BD_k6f-124" value="" style="fontSize=12;html=1;endArrow=ERoneToMany;rounded=0;hachureGap=4;fontFamily=Architects Daughter;fontSource=https%3A%2F%2Ffonts.googleapis.com%2Fcss%3Ffamily%3DArchitects%2BDaughter;entryX=0;entryY=0.5;entryDx=0;entryDy=0;exitX=1;exitY=0.5;exitDx=0;exitDy=0;" parent="1" source="MGfqe1ervh68L7BD_k6f-90" target="MGfqe1ervh68L7BD_k6f-5" edge="1">
          <mxGeometry width="100" height="100" relative="1" as="geometry">
            <mxPoint x="-220" y="230" as="sourcePoint" />
            <mxPoint x="-120" y="130" as="targetPoint" />
          </mxGeometry>
        </mxCell>
        <mxCell id="MGfqe1ervh68L7BD_k6f-125" value="" style="fontSize=12;html=1;endArrow=ERoneToMany;rounded=0;sketch=1;hachureGap=4;jiggle=2;curveFitting=1;fontFamily=Architects Daughter;fontSource=https%3A%2F%2Ffonts.googleapis.com%2Fcss%3Ffamily%3DArchitects%2BDaughter;entryX=1;entryY=0.5;entryDx=0;entryDy=0;exitX=0;exitY=0.5;exitDx=0;exitDy=0;" parent="1" source="MGfqe1ervh68L7BD_k6f-88" target="MGfqe1ervh68L7BD_k6f-5" edge="1">
          <mxGeometry width="100" height="100" relative="1" as="geometry">
            <mxPoint x="750" y="-60" as="sourcePoint" />
            <mxPoint x="850" y="-160" as="targetPoint" />
          </mxGeometry>
        </mxCell>
      </root>
    </mxGraphModel>
  </diagram>
</mxfile>
